<?xml version="1.0" encoding="utf-8"?>
<!-- Generator: Adobe Illustrator 22.1.0, SVG Export Plug-In . SVG Version: 6.00 Build 0)  -->
<svg version="1.1" id="Camada_1" xmlns="http://www.w3.org/2000/svg" xmlns:xlink="http://www.w3.org/1999/xlink" x="0px" y="0px"
	 viewBox="0 0 511 511" style="enable-background:new 0 0 511 511;" xml:space="preserve">
<style type="text/css">
	.st0{fill:#E64C3C;}
	.st1{fill:#E6E7E8;}
	.st2{fill:#90BAE1;}
	.st3{fill:#B0D3F0;}
</style>
<path class="st0" d="M334.9,378.8l40.2,46.8c8.2,9.6,12.7,21.8,12.7,34.5v46.5c0,1.8-1.2,3.5-2.9,4.1c-1.7,0.6-3.7,0.1-4.9-1.3
	l-29.3-42.8c-4.7-5.6-10.4-10.1-16.9-13.4l-62.1-31l-32.3-0.1l-62.1,31.1c-6.5,3.3-12.3,7.8-16.9,13.4l-29.3,42.8
	c-1.2,1.4-3.1,1.9-4.9,1.3s-2.9-2.3-2.9-4.1v-46.5c0-12.6,4.5-24.9,12.7-34.5l40.2-46.8H334.9z"/>
<path class="st0" d="M315,83.3c1.5-5.7,2.2-11.6,2.2-17.5c0-22.9-24.3-48.2-42.3-60.1c-11.7-7.7-26.9-7.7-38.7,0
	c-18.1,11.9-42.4,37.2-42.4,60.1c0,5.9,0.7,11.8,2.2,17.5H315z"/>
<path class="st0" d="M298,83.3c1.1-5.8,1.6-11.6,1.6-17.5c0-22.9-17.3-48.2-30.3-60.1c-3.6-3.7-8.6-5.8-13.8-5.8
	c-5.2,0-10.2,2.1-13.8,5.8c-12.9,11.9-30.3,37.2-30.3,60.1c0,5.9,0.5,11.7,1.6,17.5H298z"/>
<path class="st0" d="M149.8,167.2L68,201.3c-15.2,6.3-26.5,19.3-30.8,35.2L9.1,332.4c-0.8,3.1,0.1,6.5,2.5,8.7
	c2.4,2.2,5.7,3,8.8,1.9L141,299.5L149.8,167.2z"/>
<path class="st0" d="M361.3,167.2l81.7,34.1c15.2,6.3,26.5,19.3,30.8,35.2l28.2,95.9c0.8,3.1-0.1,6.5-2.5,8.7
	c-2.4,2.2-5.7,3-8.8,1.9l-120.6-43.6L361.3,167.2z"/>
<path class="st1" d="M237.6,412.1c-59.7-12.3-105.4-85.7-105.4-174.4c0-97.4,55.3-176.3,123.4-176.3c68.1,0,123.4,78.9,123.4,176.3
	c0,88.8-45.8,162.1-105.5,174.4"/>
<path class="st1" d="M241.4,412.1c-46.9-12.3-82.9-85.7-82.9-174.4c0-97.4,43.4-176.3,97-176.3c53.5,0,97,78.9,97,176.3
	c0,88.8-36,162.1-82.9,174.4"/>
<path class="st0" d="M233.2,387.6L255.5,511L278,387.3c1.6-6.3,0.4-13-3.1-18.5c-3.6-5.5-9.2-9.2-15.6-10.3l-0.7-0.1
	c-7.6-0.8-15.2,2.2-20.2,8C233.3,372.3,231.4,380.1,233.2,387.6z"/>
<path class="st2" d="M317.2,149.6c0,34.1-27.6,61.7-61.7,61.7c-34.1,0-61.7-27.6-61.7-61.7s27.6-61.7,61.7-61.7
	C289.6,87.9,317.2,115.5,317.2,149.6z"/>
<path class="st3" d="M299.6,149.6c0,24.3-19.7,44.1-44.1,44.1c-24.3,0-44.1-19.7-44.1-44.1s19.7-44.1,44.1-44.1
	C279.9,105.5,299.6,125.3,299.6,149.6z"/>
<path class="st2" d="M299.6,273c0,24.3-19.7,44.1-44.1,44.1c-24.3,0-44.1-19.7-44.1-44.1s19.7-44.1,44.1-44.1
	C279.9,228.9,299.6,248.7,299.6,273z"/>
<path class="st3" d="M282,273c0,14.6-11.8,26.4-26.4,26.4c-14.6,0-26.4-11.8-26.4-26.4c0-14.6,11.8-26.4,26.4-26.4
	C270.2,246.6,282,258.4,282,273z"/>
</svg>
